<?xml version="1.0" encoding="UTF-8"?>
<svg id="OBJECTS" xmlns="http://www.w3.org/2000/svg" version="1.1" viewBox="0 0 680 684.4">
  <defs>
    <style>.st0{fill:#6ac44d;}</style>
  </defs>
  <rect width="680" height="684.4" fill="#000000"/>
  <g>
    <path class="st0" d="M564,343.4c15.6-10.1,63.2-37.9,43.6-60.2-19.6-22.3-74.2,14.2-75.4,23.6-1.1,9.4,13.6,48.4,31.8,36.7h0Z"/>
    <path class="st0" d="M538.2,364c-4.3-9.5-17.3-25.2-31.6-24.1-26.3,2-24.8,28.4-5.1,46.3,19.7,17.9,52.1,11.8,36.6-22.2h.1Z"/>
    <path class="st0" d="M506.7,433c-7-11.9-34.9-43-45.6-31-10.8,12,2.8,68.5,23.4,82.6,9.2,6.3,40.9-19.9,22.3-51.6h0Z"/>
  </g>
  <g>
    <path class="st0" d="M466.5,77.8c-2.2-12.4-20.3-58.3-46.3-19.5-19.5,29.1-4.6,44.8,12,50.2,20.2,6.5,39-3.9,34.3-30.7Z"/>
    <path class="st0" d="M459.3,177.1c1.8-15.3,3.8-49.7-30.9-53.5-34.7-3.7-27.5,59.5-18.8,68.5,8.6,9.1,45.5,19.9,49.7-15h0Z"/>
    <path class="st0" d="M453.4,264.5c3-25-7.1-50.7-27.3-50.5-20.1.2-42.2,45.8-34.2,75.7,7.1,26.4,54,35.9,61.5-25.2h0Z"/>
  </g>
  <g>
    <path class="st0" d="M354,74.9c-1.3-12.7-6.8-53.5-33.8-35.8-27,17.6-26.3,54.9-21.1,67.2,7,16.6,60.6,26,54.9-31.4h0Z"/>
    <path class="st0" d="M364.7,164.1c-2.9-16.6-7.4-34.3-35.7-28.6-33.5,6.8-36.7,49.7-17.4,65.9,18.1,15.3,59.5-1.2,53.1-37.4h0Z"/>
    <path class="st0" d="M355,291.2c11.8-7,17.9-58.1,3.2-68-14.7-9.9-48.3,5.4-49.1,21.3s-13.3,81.8,45.9,46.8h0Z"/>
  </g>
  <g>
    <path class="st0" d="M233.5,74.4c-5.1-13.9-21.4-29.9-33.5-22.4s-17.4,43.2.9,53.4c18.3,10.2,42.1-5.3,32.6-31Z"/>
    <path class="st0" d="M265.4,155.4c-5.3-13-17.7-39.7-47.4-30-24.4,8-21,51.7,2,65.1,28,16.3,61.2,3,45.5-35.1h-.1Z"/>
    <path class="st0" d="M289.1,275.9c2.6-18.5,3.2-67.5-38.9-63.8-32.9,2.9-22.6,43.2-13.6,65.8,7.3,18.5,44.6,55.7,52.5-1.9h0Z"/>
  </g>
  <g>
    <path class="st0" d="M233.4,339c-1-7.3-16.2-27.2-37.7-18.3-28,11.6-20.7,29.1-12.4,50.6,8.3,21.5,56.8,18.4,50.2-32.3h-.1Z"/>
    <path class="st0" d="M203.9,278.9c1.4-10.3-9.6-35.6-33.1-25.4-23.5,10.1-22.1,29-14.1,39.7s40.9,31.8,47.3-14.3h0Z"/>
    <path class="st0" d="M178.8,210.3c-.9-11.6-7.7-51.1-30-35.9-22.3,15.2-15.7,50.8-3.1,63.1,5.9,5.7,35.3,1.1,33.1-27.2Z"/>
  </g>
  <path class="st0" d="M464.4,602.5c-5.2,42.7-168.2,90.4-216.6,11.7s-21.7-236.4,29.1-263.5c72.3-38.7,121.6-12.4,140.1,17.1,19.9,31.6,54,174.7,5.4,199-108.9,54.5-163.3-14.4-146.1-111.7,14.1-79.8,133.9-31.9,113.5-1.9s-58.6-28.5-80.2-12.6c-21.7,15.9-3.1,82.4,49.6,99,64.4,20.3,79.1-103.2,32.3-146-42.1-38.5-133.2-12.2-140.3,76.1-8.4,105.2,32.3,156.9,108.4,147.1,27.5-3.5,107.8-38.9,104.8-14.2h0Z"/>
</svg>
