<?xml version="1.0" encoding="UTF-8"?>
<svg id="OBJECTS" xmlns="http://www.w3.org/2000/svg" version="1.1" viewBox="0 0 1831.1 684.4">
  <defs>
    <style>
      .st0 { fill: #191919; }
      .st1 { fill: #6ac44d; }
    </style>
  </defs>
  <g>
    <g>
      <g>
        <path class="st1" d="M459.2,343.3c15.6-10.1,63.2-37.9,43.6-60.2-19.6-22.3-74.2,14.2-75.4,23.6-1.1,9.4,13.6,48.4,31.8,36.7Z"/>
        <path class="st1" d="M433.4,363.9c-4.3-9.5-17.3-25.2-31.6-24.1-26.3,2-24.8,28.4-5.1,46.3,19.7,17.9,52.1,11.8,36.6-22.2Z"/>
        <path class="st1" d="M401.9,432.9c-7-11.9-34.9-43-45.6-31-10.8,12,2.8,68.5,23.4,82.6,9.2,6.3,40.9-19.9,22.3-51.6Z"/>
      </g>
      <g>
        <path class="st1" d="M361.7,77.7c-2.2-12.4-20.3-58.3-46.3-19.5-19.5,29.1-4.6,44.8,12,50.2,20.2,6.5,39-3.9,34.3-30.7Z"/>
        <path class="st1" d="M354.5,177c1.8-15.3,3.8-49.7-30.9-53.5-34.7-3.7-27.5,59.5-18.8,68.5,8.6,9.1,45.5,19.9,49.7-15Z"/>
        <path class="st1" d="M348.6,264.4c3-25-7.1-50.7-27.3-50.5-20.1.2-42.2,45.8-34.2,75.7,7.1,26.4,54,35.9,61.5-25.2Z"/>
      </g>
      <g>
        <path class="st1" d="M249.2,74.8c-1.3-12.7-6.8-53.5-33.8-35.8-27,17.6-26.3,54.9-21.1,67.2,7,16.6,60.6,26,54.9-31.4Z"/>
        <path class="st1" d="M259.9,164c-2.9-16.6-7.4-34.3-35.7-28.6-33.5,6.8-36.7,49.7-17.4,65.9,18.1,15.3,59.5-1.2,53.1-37.4Z"/>
        <path class="st1" d="M250.2,291.1c11.8-7,17.9-58.1,3.2-68-14.7-9.9-48.3,5.4-49.1,21.3-.8,15.9-13.3,81.8,45.9,46.8Z"/>
      </g>
      <g>
        <path class="st1" d="M128.7,74.3c-5.1-13.9-21.4-29.9-33.5-22.4-12.1,7.5-17.4,43.2.9,53.4,18.3,10.2,42.1-5.3,32.6-31Z"/>
        <path class="st1" d="M160.6,155.3c-5.3-13-17.7-39.7-47.4-30-24.4,8-21,51.7,2,65.1,28,16.3,61.2,3,45.5-35.1Z"/>
        <path class="st1" d="M184.3,275.8c2.6-18.5,3.2-67.5-38.9-63.8-32.9,2.9-22.6,43.2-13.6,65.8,7.3,18.5,44.6,55.7,52.5-1.9Z"/>
      </g>
      <g>
        <path class="st1" d="M128.6,338.9c-1-7.3-16.2-27.2-37.7-18.3-28,11.6-20.7,29.1-12.4,50.6,8.3,21.5,56.8,18.4,50.2-32.3Z"/>
        <path class="st1" d="M99.1,278.8c1.4-10.3-9.6-35.6-33.1-25.4-23.5,10.1-22.1,29-14.1,39.7,8,10.7,40.9,31.8,47.3-14.3Z"/>
        <path class="st1" d="M74,210.2c-.9-11.6-7.7-51.1-30-35.9-22.3,15.2-15.7,50.8-3.1,63.1,5.9,5.7,35.3,1.1,33.1-27.2Z"/>
      </g>
      <path class="st1" d="M359.6,602.4c-5.2,42.7-168.2,90.4-216.6,11.7s-21.7-236.4,29.1-263.5c72.3-38.7,121.6-12.4,140.1,17.1,19.9,31.6,54,174.7,5.4,199-108.9,54.5-163.3-14.4-146.1-111.7,14.1-79.8,133.9-31.9,113.5-1.9-20.4,30-58.6-28.5-80.2-12.6-21.7,15.9-3.1,82.4,49.6,99,64.4,20.3,79.1-103.2,32.3-146-42.1-38.5-133.2-12.2-140.3,76.1-8.4,105.2,32.3,156.9,108.4,147.1,27.5-3.5,107.8-38.9,104.8-14.2Z"/>
    </g>
    <g>
      <path class="st0" d="M753.1,327.8h-106.5l-15.8,48.3h-105.1l116.9-319.4h115.5l116.4,319.4h-105.6l-15.8-48.3ZM728.7,252.5l-28.9-88.9-28.9,88.9h57.7Z"/>
      <path class="st0" d="M1122.6,56.7v79.4h-125.4v44.2h90.2v75.3h-90.2v120.5h-100.2V56.7h225.6Z"/>
      <path class="st0" d="M1317,376.1l-60-114.6h-.5v114.6h-100.2V56.7h148.9c25.9,0,48,4.6,66.3,13.8,18.3,9.2,32.1,21.7,41.3,37.4,9.2,15.8,13.8,33.6,13.8,53.5s-5.9,40.3-17.8,56.8c-11.9,16.5-29,28.4-51.2,35.6l69.5,122.3h-110.1ZM1256.6,194.8h39.7c9.6,0,16.8-2.2,21.7-6.5,4.8-4.4,7.2-11.2,7.2-20.5s-2.5-15-7.4-19.9c-5-4.8-12.1-7.2-21.4-7.2h-39.7v54.1Z"/>
      <path class="st0" d="M1531.6,358.1c-25.1-14.1-45-33.7-59.8-58.7-14.7-25-22.1-53.1-22.1-84.4s7.4-59.4,22.1-84.4c14.7-25,34.7-44.4,59.8-58.4,25.1-14,52.7-21,82.8-21s57.6,7,82.6,21c25,14,44.7,33.5,59.3,58.4,14.6,25,21.9,53.1,21.9,84.4s-7.3,59.4-21.9,84.4c-14.6,25-34.4,44.5-59.6,58.7-25.1,14.1-52.6,21.2-82.3,21.2s-57.7-7.1-82.8-21.2ZM1660.4,266.7c10.8-12.8,16.2-30,16.2-51.7s-5.4-39.3-16.2-52.1c-10.8-12.8-26.2-19.2-46-19.2s-35.6,6.4-46.5,19.2c-10.8,12.8-16.2,30.2-16.2,52.1s5.4,38.9,16.2,51.7c10.8,12.8,26.3,19.2,46.5,19.2s35.2-6.4,46-19.2Z"/>
    </g>
    <g>
      <path class="st0" d="M582.3,469.8v23.8h60.2v45.7h-60.2v27.4h68.4v48.4h-129.2v-193.7h129.2v48.4h-68.4Z"/>
      <path class="st0" d="M868.8,421.4l-65.1,193.7h-78.5l-65.1-193.7h64.6l40,133.3,39.7-133.3h64.6Z"/>
      <path class="st0" d="M943.2,469.8v23.8h60.2v45.7h-60.2v27.4h68.4v48.4h-129.2v-193.7h129.2v48.4h-68.4Z"/>
      <path class="st0" d="M1220.4,615.1h-60.7l-64.3-97.4v97.4h-60.7v-193.7h60.7l64.3,99.1v-99.1h60.7v193.7Z"/>
      <path class="st0" d="M1399.9,421.4v48.2h-51.4v145.6h-60.7v-145.6h-50.9v-48.2h163.1Z"/>
      <path class="st0" d="M1460.5,604.2c-15.2-8.6-27.3-20.4-36.3-35.6-8.9-15.1-13.4-32.2-13.4-51.2s4.5-36,13.4-51.2c8.9-15.1,21-27,36.3-35.4,15.2-8.5,32-12.7,50.2-12.7s34.9,4.2,50.1,12.7c15.1,8.5,27.1,20.3,36,35.4,8.8,15.1,13.3,32.2,13.3,51.2s-4.4,36-13.3,51.2c-8.8,15.1-20.9,27-36.1,35.6-15.2,8.6-31.9,12.9-49.9,12.9s-35-4.3-50.2-12.9ZM1538.6,548.8c6.6-7.8,9.9-18.2,9.9-31.3s-3.3-23.8-9.9-31.6c-6.6-7.8-15.9-11.6-27.9-11.6s-21.6,3.9-28.2,11.6c-6.6,7.8-9.9,18.3-9.9,31.6s3.3,23.6,9.9,31.3c6.6,7.8,16,11.6,28.2,11.6s21.3-3.9,27.9-11.6Z"/>
      <path class="st0" d="M1650.4,600.8c-15-10.9-23.2-26.8-24.5-47.8h64.6c.9,11.1,5.8,16.7,14.8,16.7s6.1-.8,8.3-2.3c2.3-1.5,3.4-4,3.4-7.3s-2.5-8.3-7.4-11.1c-4.9-2.8-12.6-6.1-23-9.7-12.4-4.4-22.7-8.7-30.8-12.9-8.1-4.2-15.1-10.3-20.9-18.3-5.8-8-8.7-18.3-8.5-30.9,0-12.6,3.2-23.3,9.7-32.2,6.5-8.8,15.3-15.6,26.5-20.1,11.2-4.6,23.9-6.8,37.9-6.8,23.7,0,42.6,5.5,56.5,16.4,14,10.9,21.3,26.4,22,46.2h-65.4c-.2-5.5-1.6-9.4-4.1-11.8-2.6-2.4-5.7-3.6-9.3-3.6s-4.7.9-6.3,2.6c-1.6,1.7-2.5,4.2-2.5,7.3s2.4,8,7.3,10.8c4.8,2.8,12.5,6.3,23.1,10.3,12.2,4.6,22.3,8.9,30.2,13.1,7.9,4.2,14.8,10,20.7,17.5,5.8,7.5,8.8,16.9,8.8,28.2s-2.9,22.5-8.8,31.9c-5.8,9.4-14.3,16.7-25.4,22-11.1,5.3-24.4,7.9-39.7,7.9-23.2,0-42.3-5.4-57.3-16.3Z"/>
    </g>
  </g>
</svg>
